<?xml version="1.0" standalone="no"?>
<!DOCTYPE svg PUBLIC "-//W3C//DTD SVG 20010904//EN"
 "http://www.w3.org/TR/2001/REC-SVG-20010904/DTD/svg10.dtd">
<svg version="1.0" xmlns="http://www.w3.org/2000/svg"
 width="510.000000pt" height="510.000000pt" viewBox="0 0 510.000000 510.000000"
 preserveAspectRatio="xMidYMid meet">
<metadata>
Created by potrace 1.11, written by Peter Selinger 2001-2013
</metadata>
<g transform="translate(0.000000,510.000000) scale(0.100000,-0.100000)"
fill="#000000" stroke="none">
<path d="M2244 5025 c-59 -16 -148 -66 -175 -98 -38 -44 -100 -155 -120 -216
-27 -79 -88 -144 -128 -135 -44 10 -131 55 -167 86 -42 37 -104 121 -104 141
0 61 -99 20 -182 -75 -98 -112 -116 -174 -98 -329 7 -67 8 -111 2 -132 -6 -18
-13 -44 -16 -59 -9 -39 -53 -46 -111 -18 -55 26 -86 63 -122 140 -31 67 -39
70 -117 44 -33 -12 -65 -35 -107 -77 -82 -85 -91 -119 -94 -362 -1 -104 -3
-199 -3 -209 -2 -17 -8 -18 -80 -13 -75 6 -144 31 -180 65 -19 17 -25 16 -60
-15 -22 -21 -41 -56 -67 -133 -61 -175 -59 -334 6 -492 16 -40 34 -80 38 -89
19 -33 61 -146 70 -189 17 -74 14 -85 -24 -103 -46 -22 -89 -21 -134 2 -65 33
-119 53 -129 47 -27 -16 -52 -89 -52 -151 0 -57 5 -74 51 -162 28 -54 76 -134
107 -178 64 -89 210 -240 243 -250 20 -7 21 -12 15 -62 -8 -65 -22 -95 -70
-146 -20 -21 -36 -43 -36 -48 0 -6 -18 -32 -41 -59 l-41 -49 17 -45 c35 -92
203 -224 315 -247 81 -18 127 -45 134 -82 11 -55 6 -120 -16 -201 -16 -61 -29
-88 -55 -113 -18 -19 -33 -39 -33 -47 0 -28 62 -104 112 -137 84 -56 106 -69
121 -69 8 0 28 -7 46 -16 44 -22 171 -29 256 -14 39 7 99 14 135 17 l66 5 52
-71 c88 -118 104 -172 73 -252 -7 -19 -3 -34 14 -64 20 -36 27 -41 76 -48 120
-19 212 -1 333 64 60 32 118 35 156 8 36 -27 73 -86 91 -147 11 -39 11 -45
-10 -73 -29 -39 -21 -62 29 -84 45 -20 100 -17 200 11 48 13 79 33 160 101 56
46 115 100 132 119 44 49 76 64 129 57 58 -8 88 -24 131 -71 23 -25 37 -53 42
-80 3 -23 10 -42 15 -42 6 0 13 -9 16 -20 10 -31 46 -34 126 -10 73 22 130 55
159 94 42 57 82 135 115 223 67 178 73 185 163 172 108 -15 160 -50 194 -128
38 -86 83 -101 157 -51 71 48 107 95 124 164 27 103 27 150 1 257 -25 103 -24
149 5 149 9 1 34 9 56 20 48 23 132 26 181 5 24 -10 39 -25 50 -50 17 -42 37
-52 68 -36 61 33 98 118 126 289 13 80 0 216 -27 282 -8 19 -18 55 -24 79 -9
42 -9 45 23 73 79 68 161 87 211 47 15 -11 41 -23 59 -26 32 -5 34 -3 62 59
25 53 30 76 30 148 1 90 5 77 -78 250 -9 19 -25 49 -35 65 -34 54 -88 169 -94
202 -5 27 1 40 39 90 57 73 89 93 161 100 75 7 103 31 103 88 0 99 -62 239
-138 312 -30 29 -59 53 -64 53 -5 0 -48 25 -95 56 -85 57 -85 57 -79 93 7 44
50 86 103 101 61 16 68 25 66 73 -2 49 -46 137 -90 181 -34 34 -105 74 -228
127 -121 52 -163 77 -198 118 -31 37 -28 52 29 130 39 56 60 71 96 71 41 0 66
48 35 67 -7 4 -18 20 -25 36 -27 62 -165 104 -306 92 -77 -7 -86 -5 -119 16
-20 13 -41 36 -48 51 -15 36 3 149 30 187 12 16 21 36 21 44 0 8 7 17 15 21
22 8 18 40 -7 63 -13 11 -57 31 -98 43 -69 21 -82 22 -153 12 -80 -12 -143
-36 -187 -72 -14 -11 -41 -23 -60 -26 -31 -5 -47 3 -137 66 -101 70 -103 72
-103 111 0 22 7 50 16 64 15 24 22 94 10 114 -9 14 -72 31 -115 31 -64 0 -160
-33 -261 -91 -70 -39 -103 -65 -164 -125 -50 -50 -67 -62 -124 -89 -22 -11
-38 -13 -45 -6 -7 5 -31 14 -54 20 -23 6 -51 23 -62 37 -30 38 -53 128 -55
219 -2 88 -8 105 -36 105 -10 0 -22 5 -25 10 -8 13 -49 12 -111 -5z m72 -126
c2 -122 43 -231 106 -280 34 -26 112 -49 169 -49 48 0 133 48 201 112 76 73
127 108 193 137 28 12 58 26 67 31 10 6 25 10 33 10 8 0 15 4 15 9 0 11 109
20 127 11 9 -4 1 -22 -25 -60 -34 -51 -37 -60 -37 -127 1 -71 2 -74 40 -114
40 -41 102 -79 129 -79 8 0 16 -5 18 -10 2 -6 37 -11 78 -12 70 -1 80 2 140
37 153 90 184 98 290 76 108 -23 110 -26 42 -71 -59 -38 -60 -39 -71 -102 -15
-90 -13 -116 12 -168 16 -33 34 -50 69 -68 47 -24 57 -25 215 -22 87 1 129 -4
190 -25 51 -18 52 -46 1 -58 -21 -5 -38 -12 -38 -17 0 -4 -12 -13 -27 -19 -39
-17 -97 -104 -89 -134 12 -48 58 -137 71 -137 7 0 19 -7 26 -16 13 -16 187
-104 206 -104 6 0 36 -11 68 -25 87 -39 195 -149 195 -200 0 -11 -11 -15 -50
-15 -62 0 -96 -15 -137 -58 -59 -64 -50 -145 23 -196 99 -67 178 -118 192
-124 79 -30 183 -187 186 -282 1 -40 -1 -45 -19 -42 -64 10 -157 2 -202 -18
-67 -28 -86 -63 -91 -166 -4 -72 -1 -89 23 -145 15 -35 32 -73 38 -84 146
-269 173 -338 161 -418 -10 -63 -22 -73 -53 -44 -44 39 -81 52 -143 50 -79 -2
-122 -18 -151 -56 -43 -58 -54 -180 -23 -272 52 -153 49 -393 -6 -462 -10 -13
-44 11 -131 91 -63 57 -123 69 -193 37 -37 -17 -104 -84 -104 -104 0 -5 -6
-23 -14 -40 -22 -49 -25 -73 -15 -114 40 -173 38 -308 -6 -375 -13 -19 -84
-78 -94 -78 -4 0 -13 22 -20 48 -17 68 -73 148 -121 172 -89 45 -211 34 -265
-25 -53 -58 -68 -87 -140 -270 -16 -38 -34 -77 -42 -86 -7 -8 -13 -20 -13 -25
0 -12 -76 -84 -105 -100 -29 -16 -85 -27 -85 -17 -5 127 -17 168 -67 215 -41
40 -98 57 -158 48 -101 -15 -169 -55 -274 -159 -123 -122 -148 -138 -270 -176
-56 -17 -85 -10 -64 17 31 38 32 155 2 212 -26 51 -61 95 -75 95 -5 1 -29 10
-51 21 -40 19 -133 25 -133 9 0 -4 -24 -19 -53 -33 -30 -14 -60 -32 -67 -41
-7 -8 -18 -15 -25 -15 -7 0 -38 -12 -70 -26 -46 -21 -67 -25 -111 -22 -75 6
-81 15 -59 84 21 66 16 171 -11 211 -32 50 -89 105 -128 125 -69 35 -191 40
-276 11 -74 -25 -221 -11 -292 28 -10 5 -23 9 -30 9 -14 0 -118 68 -135 89
-14 16 -1 41 22 41 6 0 23 12 36 27 83 94 99 210 42 298 -7 11 -13 28 -13 38
0 53 -86 116 -198 145 -65 17 -182 83 -182 102 0 6 -6 10 -12 10 -22 1 -56 36
-72 73 -15 36 -14 37 14 57 15 11 31 20 34 20 15 0 129 96 134 112 2 10 8 18
13 18 5 0 9 8 9 18 0 11 7 33 16 50 12 25 13 39 4 71 -18 67 -36 91 -86 116
-53 27 -164 123 -164 142 0 6 -8 18 -18 25 -10 7 -28 30 -41 51 -13 21 -28 43
-34 50 -18 19 -42 62 -93 160 -34 67 -44 98 -42 125 4 47 27 53 69 17 42 -35
95 -61 142 -69 32 -6 45 -3 73 16 19 13 37 34 40 48 3 14 9 40 14 58 14 52
-14 211 -51 290 -46 102 -47 104 -64 152 -46 131 -62 246 -42 307 8 26 19 66
23 88 7 43 40 116 57 127 6 4 26 -7 45 -23 95 -84 278 -115 298 -52 3 10 10
28 16 40 6 12 9 39 8 60 -6 94 -4 412 3 445 4 21 23 55 42 75 19 21 35 41 35
44 0 4 11 10 24 13 13 3 31 9 39 12 12 4 19 -5 26 -33 22 -80 76 -167 117
-190 53 -31 153 -32 194 -3 52 37 63 85 65 290 2 165 5 190 23 230 25 52 113
150 135 150 8 0 20 -15 27 -32 36 -96 98 -162 188 -201 84 -36 137 -36 188 2
58 42 71 60 110 152 55 130 76 169 111 205 54 55 160 108 198 100 6 -2 10 -36
11 -77z"/>
<path d="M2538 3848 c-32 -18 -39 -29 -49 -73 -14 -63 3 -105 52 -125 28 -12
42 -11 97 3 36 10 71 25 78 35 7 9 14 38 14 64 0 39 -5 52 -34 82 -28 31 -40
36 -77 36 -27 0 -59 -9 -81 -22z m65 -89 c20 -17 37 -34 37 -38 0 -15 -68 -11
-84 4 -22 23 -20 65 3 65 4 0 23 -14 44 -31z"/>
<path d="M1714 3616 c-17 -8 -34 -21 -38 -31 -17 -45 2 -114 48 -169 22 -27
26 -28 59 -17 20 7 53 29 73 49 34 34 36 38 30 86 -3 28 -6 52 -6 54 0 1 -15
11 -32 22 -38 23 -89 25 -134 6z m78 -123 c14 -12 15 -19 7 -30 -22 -26 -79 9
-79 49 0 15 4 16 27 7 16 -6 36 -18 45 -26z"/>
<path d="M1920 2964 l0 -296 83 -83 c45 -45 101 -103 125 -129 l42 -45 -77
-80 c-43 -43 -99 -102 -125 -129 l-48 -50 0 -296 0 -296 240 0 240 0 0 263 0
263 65 70 c36 38 74 79 84 91 19 21 21 22 422 22 l404 1 93 -95 92 -94 0 -261
0 -260 240 0 240 0 0 295 0 295 -97 99 c-120 123 -153 158 -153 164 0 3 56 62
125 132 l125 127 0 294 0 294 -240 0 -240 0 0 -253 0 -252 -95 -97 -95 -97
-406 2 -407 2 -81 89 -81 88 2 259 2 259 -240 0 -239 0 0 -296z"/>
<path d="M1299 2987 c-32 -21 -34 -27 -37 -83 -2 -49 1 -66 20 -94 23 -34 26
-35 87 -35 l64 0 13 45 c16 54 18 104 4 131 -11 20 -79 59 -103 59 -8 0 -29
-10 -48 -23z m88 -143 c8 -22 -11 -37 -36 -29 -25 8 -43 38 -35 59 5 14 9 14
35 0 17 -8 33 -22 36 -30z"/>
</g>
</svg>
